# AST/ASF file generated using VICON BodyLanguage
# -----------------------------------------------
:version 1.10
:name VICON
:units
  mass 1.0
  length 0.45
  angle deg
:documentation
   .ast/.asf automatically generated from VICON data using
   VICON BodyBuilder and BodyLanguage model FoxedUp or BRILLIANT.MOD
:root
   order TX TY TZ RX RY RZ
   axis XYZ
   position 0 0 0  
   orientation 0 0 0 
:bonedata
  begin
     id 1 
     name lhipjoint
     direction 0.627412 -0.730575 0.26947 
     length 2.49821 
     axis 0 0 0  XYZ
  end
  begin
     id 2 
     name lfemur
     direction 0.34202 -0.939693 0  
     length 6.89165  
     axis 0 0 20  XYZ
    dof rx ry rz
    limits (-160.0 20.0)
           (-70.0 70.0)
           (-60.0 70.0)
  end
  begin
     id 3 
     name ltibia
     direction 0.34202 -0.939693 0   
     length 7.91287   
     axis 0 0 20   XYZ
    dof rx
    limits (-10.0 170.0)
  end
  begin
     id 4 
     name lfoot
     direction 0.0941675 -0.258723 0.96135   
     length 2.16919   
     axis -90 7.62852e-016 20   XYZ
    dof rx rz
    limits (-45.0 90.0)
           (-70.0 20.0)
  end
  begin
     id 5 
     name ltoes
     direction 1.5347e-011 -4.21941e-011 1   
     length 1.08535   
     axis -90 7.62852e-016 20   XYZ
    dof rx
    limits (-90.0 20.0)
  end
  begin
     id 6 
     name rhipjoint
     direction -0.614241 -0.740361 0.27308   
     length 2.46519  
     axis 0 0 0  XYZ 
  end
  begin
     id 7 
     name rfemur
     direction -0.34202 -0.939693 0   
     length 7.27512   
     axis 0 0 -20   XYZ
    dof rx ry rz
    limits (-160.0 20.0)
           (-70.0 70.0)
           (-70.0 60.0)
  end
  begin
     id 8 
     name rtibia
     direction -0.34202 -0.939693 0   
     length 7.89523   
     axis 0 0 -20   XYZ
    dof rx
    limits (-10.0 170.0)
 end
 begin
     id 9 
     name rfoot
     direction -0.0860444 -0.236405 0.967837   
     length 2.29534  
     axis -90 -7.62852e-016 -20   XYZ
    dof rx rz
    limits (-45.0 90.0)
           (-20.0 70.0)
  end
  begin
     id 10 
     name rtoes
     direction -1.53608e-011 -4.21861e-011 1   
     length 1.14915   
     axis -90 -7.62852e-016 -20   XYZ
    dof rx
    limits (-90.0 20.0)
  end
  begin
     id 11 
     name lowerback
     direction -0.00734074 0.997215 -0.0742143   
     length 2.13469   
     axis 0 0 0   XYZ
    dof rx ry rz
    limits (-20.0 45.0)
           (-30.0 30.0)
           (-30.0 30.0)
  end
  begin
     id 12 
     name upperback
     direction 0.0285728 0.99958 -0.00488656   
     length 2.13416   
     axis 0 0 0   XYZ
    dof rx ry rz
    limits (-20.0 45.0)
           (-30.0 30.0)
           (-30.0 30.0)
  end
  begin
     id 13 
     name thorax
     direction 0.0316844 0.999056 0.0297249   
     length 2.14463   
     axis 0 0 0   XYZ
    dof rx ry rz
    limits (-20.0 45.0)
           (-30.0 30.0)
           (-30.0 30.0)
  end
  begin
     id 14 
     name lowerneck
     direction -0.0281545 0.996802 0.0747864   
     length 1.79004   
     axis 0 0 0   XYZ
    dof rx ry rz
    limits (-20.0 45.0)
           (-30.0 30.0)
           (-30.0 30.0)
  end
  begin
     id 15 
     name upperneck
     direction -0.00100185 0.982732 -0.185031   
     length 1.79988   
     axis 0 0 0   XYZ
    dof rx ry rz
    limits (-20.0 45.0)
           (-30.0 30.0)
           (-30.0 30.0)
  end
  begin
     id 16
     name head
     direction 0.00403747 0.997539 -0.0700022  
     length 1.81696  
     axis 0 0 0   XYZ
    dof rx ry rz
    limits (-20.0 45.0)
           (-30.0 30.0)
           (-30.0 30.0)
  end
  begin
     id 17 
     name lclavicle
     direction 0.959882 0.242905 -0.140082  
     length 3.87755  
     axis 0 0 0   XYZ
    dof ry rz
    limits (-20.0 10.0)
           (0.0 20.0)
  end
  begin
     id 18 
     name lhumerus
     direction 1 -4.4895e-011 3.76166e-027   
     length 5.14601   
     axis 180 -30 -90   XYZ
    dof rx ry rz
    limits (-60.0 90.0)
           (-90.0 90.0)
           (-90.0 90.0)
  end
  begin
     id 19
     name lradius
     direction 1 -4.48966e-011 -3.24039e-027   
     length 3.64452   
     axis 180 -30 -90   XYZ
    dof rx
    limits (-10.0 170.0)
  end
  begin
     id 20
     name lwrist
     direction 1 -4.48999e-011 2.57119e-027   
     length 1.82226   
     axis -1.61769e-015 90 90   XYZ
    dof ry
    limits (-180.0 0.0)
 end
  begin
     id 21 
     name lhand
     direction 1 -4.48961e-011 5.13984e-027   
     length 0.56228   
     axis -3.27988e-015 90 90   XYZ
    dof rx rz
    limits (-90.0 90.0)
           (-45.0 45.0)
  end
  begin
     id 22 
     name lfingers
     direction 1 -4.48991e-011 1.02836e-026   
     length 0.453325   
     axis -6.5598e-015 90 90   XYZ
    dof rx
    limits (0.0 90.0)
  end
  begin
     id 23
     name lthumb
     direction 0.707107 -6.34956e-011 0.707107   
     length 0.650886   
     axis -90 45 2.19363e-014   XYZ
    dof rx rz
    limits (-45.0 45.0)
           (-45.0 45.0)
  end
  begin
     id 24 
     name rclavicle
     direction -0.929201 0.345171 -0.132073   
     length 3.55416  
     axis 0 0 0   XYZ 
    dof ry rz
    limits (-10.0 20.0)
           (-20.0 0.0)
  end
  begin
     id 25 
     name rhumerus
     direction -1 -4.48979e-011 4.53734e-027  
     length 5.33913   
     axis 180 30 90   XYZ
    dof rx ry rz
    limits (-90.0 60.0)
           (-90.0 90.0)
           (-90.0 90.0)
  end
  begin
     id 26 
     name rradius
     direction -1 -4.4896e-011 -2.24007e-027   
     length 3.56478   
     axis 180 30 90   XYZ
    dof rx
    limits (-10.0 170.0)
  end
  begin
     id 27 
     name rwrist
     direction -1 -4.48923e-011 2.56866e-027   
     length 1.78239   
     axis -1.61769e-015 -90 -90   XYZ
    dof ry
    limits (-180.0 0.0)
  end
  begin
     id 28
     name rhand
     direction -1 -4.48914e-011 5.13667e-027   
     length 0.857474   
     axis -3.27988e-015 -90 -90   XYZ
    dof rx rz
    limits (-90.0 90.0)
           (-45.0 45.0)
  end
  begin
     id 29
     name rfingers
     direction -1 -4.49112e-011 1.02998e-026   
     length 0.691318   
     axis -6.5598e-015 -90 -90   XYZ
    dof rx
    limits (0.0 90.0)
  end
  begin
     id 30
     name rthumb
     direction -0.707107 -6.34979e-011 0.707107   
     length 0.992598   
     axis -90 -45 -2.19363e-014   XYZ
    dof rx rz
    limits (-45.0 45.0)
           (-45.0 45.0)
  end
:hierarchy
  begin
    root lhipjoint rhipjoint lowerback
    lhipjoint lfemur
    lfemur ltibia
    ltibia lfoot
    lfoot ltoes
    rhipjoint rfemur
    rfemur rtibia
    rtibia rfoot
    rfoot rtoes
    lowerback upperback
    upperback thorax
    thorax lowerneck lclavicle rclavicle
    lowerneck upperneck
    upperneck head
    lclavicle lhumerus
    lhumerus lradius
    lradius lwrist
    lwrist lhand lthumb
    lhand lfingers
    rclavicle rhumerus
    rhumerus rradius
    rradius rwrist
    rwrist rhand rthumb
    rhand rfingers
  end

#!OML:ASF F:\VICON\USERDATA\INSTALL\Justin4\Justin4.ASF
:FULLY-SPECIFIED
:DEGREES
609
root -1.78509 14.0539 21.2386 -59.178 -77.7634 55.938
lowerback 30.2288 2.63323 -0.672663
upperback 9.37331 2.70971 4.78654
thorax -6.28182 0.898008 4.85173
lowerneck -7.55804 5.39115 -0.979242
upperneck 8.95233 8.07954 -7.40526
head 4.19373 3.53772 -1.62401
rclavicle 6.36111e-015 1.90833e-014
rhumerus 2.10327 8.54978 -71.6143
rradius 127.712
rwrist 8.18102
rhand -13.3359 16.753
rfingers 7.12502
rthumb 12.7694 -12.8365
lclavicle 6.36111e-015 1.90833e-014
lhumerus 0.715499 1.66417 88.0678
lradius 136.241
lwrist 5.81587
lhand -16.9703 8.06006
lfingers 7.12502
lthumb 9.26401 37.8365
rfemur -50.475 -7.16246 -8.40752
rtibia 84.7509
rfoot -22.5746 10.8247
rtoes -16.656
lfemur -35.3178 4.97138 -2.01372
ltibia 60.5536
lfoot -9.95175 -7.31127
ltoes -33.1708
610
root -1.85116 13.9366 21.311 -55.5736 -78.9273 52.0862
lowerback 29.9171 2.4145 0.412864
upperback 9.46532 2.72513 4.88237
thorax -5.98832 0.89939 4.32215
lowerneck -7.38242 5.81689 -0.627331
upperneck 8.96064 8.67896 -8.09252
head 4.2342 3.80959 -1.85302
rclavicle -3.18055e-015 6.04305e-014
rhumerus 1.60991 8.28648 -71.5275
rradius 127.573
rwrist 8.19533
rhand -13.6358 16.699
rfingers 7.12502
rthumb 12.4803 -12.9083
lclavicle -3.18055e-015 6.04305e-014
lhumerus 1.56705 1.69283 87.6274
lradius 135.968
lwrist 6.12805
lhand -16.9631 7.94565
lfingers 7.12502
lthumb 9.27093 37.7218
rfemur -50.4898 -7.13193 -7.29195
rtibia 85.7617
rfoot -22.3759 12.1419
rtoes -9.02531
lfemur -36.2839 5.65039 -0.294226
ltibia 62.7824
lfoot -10.4694 -8.18975
ltoes -33.8651
611
root -1.93154 13.8311 21.3908 -56.806 -79.3338 52.586
lowerback 30.0369 2.54234 0.422641
upperback 9.65673 2.84872 4.72914
thorax -5.82877 0.948035 4.10111
lowerneck -6.90411 6.05614 -1.07663
upperneck 8.31653 8.974 -7.99343
head 4.37287 3.99453 -1.96774
rclavicle -1.90833e-014 -4.13472e-014
rhumerus 1.02183 7.92546 -71.4309
rradius 127.474
rwrist 8.00913
rhand -13.4568 16.9167
rfingers 7.12502
rthumb 12.6528 -12.68
lclavicle -1.90833e-014 -4.13472e-014
lhumerus 2.33119 1.53646 87.4712
lradius 135.777
lwrist 6.84187
lhand -17.3687 8.30458
lfingers 7.12502
lthumb 8.87958 38.0978
rfemur -49.8448 -6.57309 -7.73454
rtibia 86.695
rfoot -21.6572 14.7399
rtoes 2.72057
lfemur -36.1289 6.17513 0.197075
ltibia 64.782
lfoot -11.6794 -8.9931
ltoes -35.53
612
root -2.03295 13.7376 21.4861 -66.1526 -77.7819 60.7797
lowerback 30.4619 3.16841 -1.82899
upperback 9.94419 2.9113 3.92741
thorax -5.77138 0.959813 4.48407
lowerneck -6.2938 6.22167 -1.88155
upperneck 7.91352 9.18833 -7.7732
head 4.05315 4.11446 -1.75787
rclavicle 1.59028e-015 5.08889e-014
rhumerus 0.169378 7.75691 -71.6206
rradius 127.392
rwrist 8.00085
rhand -13.5475 17.1059
rfingers 7.12502
rthumb 12.5654 -12.4963
lclavicle 1.59028e-015 5.08889e-014
lhumerus 2.92574 1.45649 87.2836
lradius 135.644
lwrist 7.77086
lhand -17.7166 8.78088
lfingers 7.12502
lthumb 8.54381 38.588
rfemur -48.7 -6.19218 -10.931
rtibia 87.5944
rfoot -22.4924 16.1521
rtoes 4.97431
lfemur -34.6141 6.23983 -2.05911
ltibia 66.2816
lfoot -13.1702 -9.31845
ltoes -36.0214
613
root -2.09772 13.6253 21.5187 -56.2185 -80.0502 50.6882
lowerback 30.3847 2.66348 0.337936
upperback 9.64479 2.96628 4.5605
thorax -6.00752 1.00197 3.91769
lowerneck -5.94861 6.34775 -2.56031
upperneck 7.57806 9.34571 -7.50529
head 3.81401 4.20505 -1.55501
rclavicle 9.54166e-015 4.77083e-015
rhumerus -1.02493 7.98324 -71.9985
rradius 127.469
rwrist 8.104
rhand -14.176 17.1142
rfingers 7.12502
rthumb 11.9594 -12.5242
lclavicle 9.54166e-015 4.77083e-015
lhumerus 3.51729 1.95318 87.119
lradius 135.398
lwrist 8.02453
lhand -17.0022 8.38303
lfingers 7.12502
lthumb 9.2332 38.1609
rfemur -48.6571 -5.96669 -7.61874
rtibia 88.6431
rfoot -24.1129 13.7578
rtoes 0.417581
lfemur -35.7968 6.85608 1.77821
ltibia 67.8864
lfoot -13.352 -11.6067
ltoes -35.9908
